mtllib 1.ifc.mtl
g 3
s 1
usemtl IfcSlab
v 0 1.05 -0.3
v 0 1.05 0
v 0 6.15 -0.3
v 0 6.15 0
v 0 6.15 -0.3
v 0 6.15 0
v 4.1 6.15 -0.3
v 4.1 6.15 0
v 4.1 6.15 -0.3
v 4.1 6.15 0
v 4.1 2.8 -0.3
v 4.1 2.8 0
v 4.1 2.8 -0.3
v 4.1 2.8 0
v 7.18 2.8 -0.3
v 7.18 2.8 0
v 7.18 2.8 -0.3
v 7.18 2.8 0
v 7.18 0 -0.3
v 7.18 0 0
v 7.18 0 -0.3
v 7.18 0 0
v 3.58 0 -0.3
v 3.58 0 0
v 3.58 0 -0.3
v 3.58 0 0
v 3.58 1.05 -0.3
v 3.58 1.05 0
v 3.58 1.05 -0.3
v 3.58 1.05 0
v 0 1.05 -0.3
v 0 1.05 0
v 0 1.05 -0.3
v 0 6.15 -0.3
v 4.1 6.15 -0.3
v 4.1 2.8 -0.3
v 7.18 2.8 -0.3
v 7.18 0 -0.3
v 3.58 0 -0.3
v 3.58 1.05 -0.3
v 0 1.05 0
v 0 6.15 0
v 4.1 6.15 0
v 4.1 2.8 0
v 7.18 2.8 0
v 7.18 0 0
v 3.58 0 0
v 3.58 1.05 0
vn -1 0 0
vn -1 0 0
vn -1 0 0
vn -1 0 0
vn 0 1 0
vn 0 1 0
vn 0 1 0
vn 0 1 0
vn 1 0 0
vn 1 0 0
vn 1 0 0
vn 1 0 0
vn 0 1 0
vn 0 1 0
vn 0 1 0
vn 0 1 0
vn 1 0 0
vn 1 0 0
vn 1 0 0
vn 1 0 0
vn 0 -1 0
vn 0 -1 0
vn 0 -1 0
vn 0 -1 0
vn -1 0 0
vn -1 0 0
vn -1 0 0
vn -1 0 0
vn 0 -1 0
vn 0 -1 0
vn 0 -1 0
vn 0 -1 0
vn -0 -0 -1
vn -0 -0 -1
vn -0 -0 -1
vn -0 -0 -1
vn -0 -0 -1
vn -0 -0 -1
vn -0 -0 -1
vn -0 -0 -1
vn 0 0 1
vn 0 0 1
vn 0 0 1
vn 0 0 1
vn 0 0 1
vn 0 0 1
vn 0 0 1
vn 0 0 1
f 3//3 1//1 2//2
f 3//3 2//2 4//4
f 7//7 5//5 6//6
f 7//7 6//6 8//8
f 11//11 9//9 10//10
f 11//11 10//10 12//12
f 15//15 13//13 14//14
f 15//15 14//14 16//16
f 20//20 17//17 18//18
f 19//19 17//17 20//20
f 23//23 21//21 22//22
f 23//23 22//22 24//24
f 27//27 25//25 26//26
f 27//27 26//26 28//28
f 32//32 29//29 30//30
f 31//31 29//29 32//32
f 33//33 34//34 36//36
f 40//40 33//33 36//36
f 39//39 40//40 38//38
f 40//40 36//36 38//38
f 38//38 36//36 37//37
f 36//36 34//34 35//35
f 44//44 42//42 41//41
f 44//44 41//41 48//48
f 46//46 48//48 47//47
f 46//46 44//44 48//48
f 45//45 44//44 46//46
f 43//43 42//42 44//44
g 3
s 1
usemtl IfcSlab
v 0 1.05 2.8
v 0 1.05 3.1
v 0 6.15 2.8
v 0 6.15 3.1
v 0 6.15 2.8
v 0 6.15 3.1
v 4.1 6.15 2.8
v 4.1 6.15 3.1
v 4.1 6.15 2.8
v 4.1 6.15 3.1
v 4.1 2.8 2.8
v 4.1 2.8 3.1
v 4.1 2.8 2.8
v 4.1 2.8 3.1
v 7.18 2.8 2.8
v 7.18 2.8 3.1
v 7.18 2.8 2.8
v 7.18 2.8 3.1
v 7.18 0 2.8
v 7.18 0 3.1
v 7.18 0 2.8
v 7.18 0 3.1
v 3.58 0 2.8
v 3.58 0 3.1
v 3.58 0 2.8
v 3.58 0 3.1
v 3.58 1.05 2.8
v 3.58 1.05 3.1
v 3.58 1.05 2.8
v 3.58 1.05 3.1
v 0 1.05 2.8
v 0 1.05 3.1
v 0 1.05 2.8
v 0 6.15 2.8
v 4.1 6.15 2.8
v 4.1 2.8 2.8
v 7.18 2.8 2.8
v 7.18 0 2.8
v 3.58 0 2.8
v 3.58 1.05 2.8
v 0 1.05 3.1
v 0 6.15 3.1
v 4.1 6.15 3.1
v 4.1 2.8 3.1
v 7.18 2.8 3.1
v 7.18 0 3.1
v 3.58 0 3.1
v 3.58 1.05 3.1
vn -1 0 0
vn -1 0 0
vn -1 0 0
vn -1 0 0
vn 0 1 0
vn 0 1 0
vn 0 1 0
vn 0 1 0
vn 1 0 0
vn 1 0 0
vn 1 0 0
vn 1 0 0
vn 0 1 0
vn 0 1 0
vn 0 1 0
vn 0 1 0
vn 1 0 0
vn 1 0 0
vn 1 0 0
vn 1 0 0
vn 0 -1 0
vn 0 -1 0
vn 0 -1 0
vn 0 -1 0
vn -1 0 0
vn -1 0 0
vn -1 0 0
vn -1 0 0
vn 0 -1 0
vn 0 -1 0
vn 0 -1 0
vn 0 -1 0
vn -0 -0 -1
vn -0 -0 -1
vn -0 -0 -1
vn -0 -0 -1
vn -0 -0 -1
vn -0 -0 -1
vn -0 -0 -1
vn -0 -0 -1
vn 0 0 1
vn 0 0 1
vn 0 0 1
vn 0 0 1
vn 0 0 1
vn 0 0 1
vn 0 0 1
vn 0 0 1
f 51//51 49//49 50//50
f 51//51 50//50 52//52
f 55//55 53//53 54//54
f 55//55 54//54 56//56
f 59//59 57//57 58//58
f 59//59 58//58 60//60
f 63//63 61//61 62//62
f 63//63 62//62 64//64
f 68//68 65//65 66//66
f 67//67 65//65 68//68
f 71//71 69//69 70//70
f 71//71 70//70 72//72
f 75//75 73//73 74//74
f 75//75 74//74 76//76
f 80//80 77//77 78//78
f 79//79 77//77 80//80
f 81//81 82//82 84//84
f 88//88 81//81 84//84
f 87//87 88//88 86//86
f 88//88 84//84 86//86
f 86//86 84//84 85//85
f 84//84 82//82 83//83
f 92//92 90//90 89//89
f 92//92 89//89 96//96
f 94//94 96//96 95//95
f 94//94 92//92 96//96
f 93//93 92//92 94//94
f 91//91 90//90 92//92
