mtllib 1.ifc.mtl
g 5
s 1
usemtl IfcWindow
v 2.34976 6.14745 0.7
v 2.34976 6.14745 2.1
v 2.35 5.99745 0.7
v 2.35 5.99745 2.1
v 2.35 5.99745 0.7
v 2.35 5.99745 2.1
v 1.75 5.9965 0.7
v 1.75 5.9965 2.1
v 1.75 5.9965 0.7
v 1.75 5.9965 2.1
v 1.74976 6.1465 0.7
v 1.74976 6.1465 2.1
v 1.74976 6.1465 0.7
v 1.74976 6.1465 2.1
v 2.34976 6.14745 0.7
v 2.34976 6.14745 2.1
v 2.34976 6.14745 0.7
v 2.35 5.99745 0.7
v 1.75 5.9965 0.7
v 1.74976 6.1465 0.7
v 2.34976 6.14745 2.1
v 2.35 5.99745 2.1
v 1.75 5.9965 2.1
v 1.74976 6.1465 2.1
vn 0.999999 0.001593 0
vn 0.999999 0.001593 0
vn 0.999999 0.001593 0
vn 0.999999 0.001593 0
vn 0.001593 -0.999999 0
vn 0.001593 -0.999999 0
vn 0.001593 -0.999999 0
vn 0.001593 -0.999999 0
vn -0.999999 -0.001593 0
vn -0.999999 -0.001593 0
vn -0.999999 -0.001593 0
vn -0.999999 -0.001593 0
vn -0.001593 0.999999 0
vn -0.001593 0.999999 0
vn -0.001593 0.999999 0
vn -0.001593 0.999999 0
vn 0 0 -1
vn 0 0 -1
vn 0 0 -1
vn 0 0 -1
vn 0 0 1
vn 0 0 1
vn 0 0 1
vn 0 0 1
f 3//3 1//1 2//2
f 3//3 2//2 4//4
f 7//7 5//5 6//6
f 7//7 6//6 8//8
f 11//11 9//9 10//10
f 11//11 10//10 12//12
f 15//15 13//13 14//14
f 15//15 14//14 16//16
f 17//17 18//18 19//19
f 20//20 17//17 19//19
f 23//23 22//22 21//21
f 23//23 21//21 24//24
g 5
s 1
usemtl IfcWindow
v 0.00167228 3.89988 0.7
v 0.00167228 3.89988 2.1
v 0.151672 3.9 0.7
v 0.151672 3.9 2.1
v 0.151672 3.9 0.7
v 0.151672 3.9 2.1
v 0.15215 3.3 0.7
v 0.15215 3.3 2.1
v 0.15215 3.3 0.7
v 0.15215 3.3 2.1
v 0.00215006 3.29988 0.7
v 0.00215006 3.29988 2.1
v 0.00215006 3.29988 0.7
v 0.00215006 3.29988 2.1
v 0.00167228 3.89988 0.7
v 0.00167228 3.89988 2.1
v 0.00167228 3.89988 0.7
v 0.151672 3.9 0.7
v 0.15215 3.3 0.7
v 0.00215006 3.29988 0.7
v 0.00167228 3.89988 2.1
v 0.151672 3.9 2.1
v 0.15215 3.3 2.1
v 0.00215006 3.29988 2.1
vn -0.0007963 1 0
vn -0.0007963 1 0
vn -0.0007963 1 0
vn -0.0007963 1 0
vn 1 0.0007963 0
vn 1 0.0007963 0
vn 1 0.0007963 0
vn 1 0.0007963 0
vn 0.0007963 -1 0
vn 0.0007963 -1 0
vn 0.0007963 -1 0
vn 0.0007963 -1 0
vn -1 -0.0007963 0
vn -1 -0.0007963 0
vn -1 -0.0007963 0
vn -1 -0.0007963 0
vn -0 0 -1
vn -0 0 -1
vn -0 0 -1
vn -0 0 -1
vn 0 0 1
vn 0 0 1
vn 0 0 1
vn 0 0 1
f 27//27 25//25 26//26
f 27//27 26//26 28//28
f 31//31 29//29 30//30
f 31//31 30//30 32//32
f 35//35 33//33 34//34
f 35//35 34//34 36//36
f 39//39 37//37 38//38
f 39//39 38//38 40//40
f 41//41 42//42 43//43
f 44//44 41//41 43//43
f 47//47 46//46 45//45
f 47//47 45//45 48//48
g 5
s 1
usemtl IfcWindow
v 7.17773 1.10036 0.7
v 7.17773 1.10036 2.1
v 7.02773 1.1 0.7
v 7.02773 1.1 2.1
v 7.02773 1.1 0.7
v 7.02773 1.1 2.1
v 7.0263 1.7 0.7
v 7.0263 1.7 2.1
v 7.0263 1.7 0.7
v 7.0263 1.7 2.1
v 7.1763 1.70035 0.7
v 7.1763 1.70035 2.1
v 7.1763 1.70035 0.7
v 7.1763 1.70035 2.1
v 7.17773 1.10036 0.7
v 7.17773 1.10036 2.1
v 7.17773 1.10036 0.7
v 7.02773 1.1 0.7
v 7.0263 1.7 0.7
v 7.1763 1.70035 0.7
v 7.17773 1.10036 2.1
v 7.02773 1.1 2.1
v 7.0263 1.7 2.1
v 7.1763 1.70035 2.1
vn 0.00238899 -0.999997 0
vn 0.00238899 -0.999997 0
vn 0.00238899 -0.999997 0
vn 0.00238899 -0.999997 0
vn -0.999997 -0.00238899 0
vn -0.999997 -0.00238899 0
vn -0.999997 -0.00238899 0
vn -0.999997 -0.00238899 0
vn -0.00238899 0.999997 0
vn -0.00238899 0.999997 0
vn -0.00238899 0.999997 0
vn -0.00238899 0.999997 0
vn 0.999997 0.00238899 0
vn 0.999997 0.00238899 0
vn 0.999997 0.00238899 0
vn 0.999997 0.00238899 0
vn 0 0 -1
vn 0 0 -1
vn 0 0 -1
vn 0 0 -1
vn 0 0 1
vn 0 0 1
vn 0 0 1
vn 0 0 1
f 51//51 49//49 50//50
f 51//51 50//50 52//52
f 55//55 53//53 54//54
f 55//55 54//54 56//56
f 59//59 57//57 58//58
f 59//59 58//58 60//60
f 63//63 61//61 62//62
f 63//63 62//62 64//64
f 65//65 66//66 67//67
f 68//68 65//65 67//67
f 71//71 70//70 69//69
f 71//71 69//69 72//72
g 5
s 1
usemtl IfcWindow
v 5.78976 2.79802 0.7
v 5.78976 2.79802 2.1
v 5.79 2.64802 0.7
v 5.79 2.64802 2.1
v 5.79 2.64802 0.7
v 5.79 2.64802 2.1
v 5.19 2.64707 0.7
v 5.19 2.64707 2.1
v 5.19 2.64707 0.7
v 5.19 2.64707 2.1
v 5.18976 2.79707 0.7
v 5.18976 2.79707 2.1
v 5.18976 2.79707 0.7
v 5.18976 2.79707 2.1
v 5.78976 2.79802 0.7
v 5.78976 2.79802 2.1
v 5.78976 2.79802 0.7
v 5.79 2.64802 0.7
v 5.19 2.64707 0.7
v 5.18976 2.79707 0.7
v 5.78976 2.79802 2.1
v 5.79 2.64802 2.1
v 5.19 2.64707 2.1
v 5.18976 2.79707 2.1
vn 0.999999 0.001593 0
vn 0.999999 0.001593 0
vn 0.999999 0.001593 0
vn 0.999999 0.001593 0
vn 0.001593 -0.999999 0
vn 0.001593 -0.999999 0
vn 0.001593 -0.999999 0
vn 0.001593 -0.999999 0
vn -0.999999 -0.001593 0
vn -0.999999 -0.001593 0
vn -0.999999 -0.001593 0
vn -0.999999 -0.001593 0
vn -0.001593 0.999999 0
vn -0.001593 0.999999 0
vn -0.001593 0.999999 0
vn -0.001593 0.999999 0
vn 0 0 -1
vn 0 0 -1
vn 0 0 -1
vn 0 0 -1
vn 0 0 1
vn 0 0 1
vn 0 0 1
vn 0 0 1
f 75//75 73//73 74//74
f 75//75 74//74 76//76
f 79//79 77//77 78//78
f 79//79 78//78 80//80
f 83//83 81//81 82//82
f 83//83 82//82 84//84
f 87//87 85//85 86//86
f 87//87 86//86 88//88
f 89//89 90//90 91//91
f 92//92 89//89 91//91
f 95//95 94//94 93//93
f 95//95 93//93 96//96
g 5
s 1
usemtl IfcWindow
v 2.34976 6.14745 3.8
v 2.34976 6.14745 5.2
v 2.35 5.99745 3.8
v 2.35 5.99745 5.2
v 2.35 5.99745 3.8
v 2.35 5.99745 5.2
v 1.75 5.9965 3.8
v 1.75 5.9965 5.2
v 1.75 5.9965 3.8
v 1.75 5.9965 5.2
v 1.74976 6.1465 3.8
v 1.74976 6.1465 5.2
v 1.74976 6.1465 3.8
v 1.74976 6.1465 5.2
v 2.34976 6.14745 3.8
v 2.34976 6.14745 5.2
v 2.34976 6.14745 3.8
v 2.35 5.99745 3.8
v 1.75 5.9965 3.8
v 1.74976 6.1465 3.8
v 2.34976 6.14745 5.2
v 2.35 5.99745 5.2
v 1.75 5.9965 5.2
v 1.74976 6.1465 5.2
vn 0.999999 0.001593 0
vn 0.999999 0.001593 0
vn 0.999999 0.001593 0
vn 0.999999 0.001593 0
vn 0.001593 -0.999999 0
vn 0.001593 -0.999999 0
vn 0.001593 -0.999999 0
vn 0.001593 -0.999999 0
vn -0.999999 -0.001593 0
vn -0.999999 -0.001593 0
vn -0.999999 -0.001593 0
vn -0.999999 -0.001593 0
vn -0.001593 0.999999 0
vn -0.001593 0.999999 0
vn -0.001593 0.999999 0
vn -0.001593 0.999999 0
vn 0 0 -1
vn 0 0 -1
vn 0 0 -1
vn 0 0 -1
vn 0 0 1
vn 0 0 1
vn 0 0 1
vn 0 0 1
f 99//99 97//97 98//98
f 99//99 98//98 100//100
f 103//103 101//101 102//102
f 103//103 102//102 104//104
f 107//107 105//105 106//106
f 107//107 106//106 108//108
f 111//111 109//109 110//110
f 111//111 110//110 112//112
f 113//113 114//114 115//115
f 116//116 113//113 115//115
f 119//119 118//118 117//117
f 119//119 117//117 120//120
g 5
s 1
usemtl IfcWindow
v 1.64 1.05 3.8
v 1.64 1.05 5.2
v 1.64 1.2 3.8
v 1.64 1.2 5.2
v 1.64 1.2 3.8
v 1.64 1.2 5.2
v 2.24 1.2 3.8
v 2.24 1.2 5.2
v 2.24 1.2 3.8
v 2.24 1.2 5.2
v 2.24 1.05 3.8
v 2.24 1.05 5.2
v 2.24 1.05 3.8
v 2.24 1.05 5.2
v 1.64 1.05 3.8
v 1.64 1.05 5.2
v 1.64 1.05 3.8
v 1.64 1.2 3.8
v 2.24 1.2 3.8
v 2.24 1.05 3.8
v 1.64 1.05 5.2
v 1.64 1.2 5.2
v 2.24 1.2 5.2
v 2.24 1.05 5.2
vn -1 0 0
vn -1 0 0
vn -1 0 0
vn -1 0 0
vn 0 1 0
vn 0 1 0
vn 0 1 0
vn 0 1 0
vn 1 0 0
vn 1 0 0
vn 1 0 0
vn 1 0 0
vn 0 -1 0
vn 0 -1 0
vn 0 -1 0
vn 0 -1 0
vn -0 -0 -1
vn -0 -0 -1
vn -0 -0 -1
vn -0 -0 -1
vn 0 0 1
vn 0 0 1
vn 0 0 1
vn 0 0 1
f 123//123 121//121 122//122
f 123//123 122//122 124//124
f 127//127 125//125 126//126
f 127//127 126//126 128//128
f 131//131 129//129 130//130
f 131//131 130//130 132//132
f 135//135 133//133 134//134
f 135//135 134//134 136//136
f 137//137 138//138 139//139
f 140//140 137//137 139//139
f 143//143 142//142 141//141
f 143//143 141//141 144//144
g 5
s 1
usemtl IfcWindow
v 5.08 0 3.8
v 5.08 0 5.2
v 5.08 0.15 3.8
v 5.08 0.15 5.2
v 5.08 0.15 3.8
v 5.08 0.15 5.2
v 5.68 0.15 3.8
v 5.68 0.15 5.2
v 5.68 0.15 3.8
v 5.68 0.15 5.2
v 5.68 0 3.8
v 5.68 0 5.2
v 5.68 0 3.8
v 5.68 0 5.2
v 5.08 0 3.8
v 5.08 0 5.2
v 5.08 0 3.8
v 5.08 0.15 3.8
v 5.68 0.15 3.8
v 5.68 0 3.8
v 5.08 0 5.2
v 5.08 0.15 5.2
v 5.68 0.15 5.2
v 5.68 0 5.2
vn -1 0 0
vn -1 0 0
vn -1 0 0
vn -1 0 0
vn 0 1 0
vn 0 1 0
vn 0 1 0
vn 0 1 0
vn 1 0 0
vn 1 0 0
vn 1 0 0
vn 1 0 0
vn 0 -1 0
vn 0 -1 0
vn 0 -1 0
vn 0 -1 0
vn -0 -0 -1
vn -0 -0 -1
vn -0 -0 -1
vn -0 -0 -1
vn 0 0 1
vn 0 0 1
vn 0 0 1
vn 0 0 1
f 147//147 145//145 146//146
f 147//147 146//146 148//148
f 151//151 149//149 150//150
f 151//151 150//150 152//152
f 155//155 153//153 154//154
f 155//155 154//154 156//156
f 159//159 157//157 158//158
f 159//159 158//158 160//160
f 161//161 162//162 163//163
f 164//164 161//161 163//163
f 167//167 166//166 165//165
f 167//167 165//165 168//168
g 5
s 1
usemtl IfcWindow
v 7.17773 1.10036 3.8
v 7.17773 1.10036 5.2
v 7.02773 1.1 3.8
v 7.02773 1.1 5.2
v 7.02773 1.1 3.8
v 7.02773 1.1 5.2
v 7.0263 1.7 3.8
v 7.0263 1.7 5.2
v 7.0263 1.7 3.8
v 7.0263 1.7 5.2
v 7.1763 1.70035 3.8
v 7.1763 1.70035 5.2
v 7.1763 1.70035 3.8
v 7.1763 1.70035 5.2
v 7.17773 1.10036 3.8
v 7.17773 1.10036 5.2
v 7.17773 1.10036 3.8
v 7.02773 1.1 3.8
v 7.0263 1.7 3.8
v 7.1763 1.70035 3.8
v 7.17773 1.10036 5.2
v 7.02773 1.1 5.2
v 7.0263 1.7 5.2
v 7.1763 1.70035 5.2
vn 0.00238899 -0.999997 0
vn 0.00238899 -0.999997 0
vn 0.00238899 -0.999997 0
vn 0.00238899 -0.999997 0
vn -0.999997 -0.00238899 0
vn -0.999997 -0.00238899 0
vn -0.999997 -0.00238899 0
vn -0.999997 -0.00238899 0
vn -0.00238899 0.999997 0
vn -0.00238899 0.999997 0
vn -0.00238899 0.999997 0
vn -0.00238899 0.999997 0
vn 0.999997 0.00238899 0
vn 0.999997 0.00238899 0
vn 0.999997 0.00238899 0
vn 0.999997 0.00238899 0
vn 0 0 -1
vn 0 0 -1
vn 0 0 -1
vn 0 0 -1
vn 0 0 1
vn 0 0 1
vn 0 0 1
vn 0 0 1
f 171//171 169//169 170//170
f 171//171 170//170 172//172
f 175//175 173//173 174//174
f 175//175 174//174 176//176
f 179//179 177//177 178//178
f 179//179 178//178 180//180
f 183//183 181//181 182//182
f 183//183 182//182 184//184
f 185//185 186//186 187//187
f 188//188 185//185 187//187
f 191//191 190//190 189//189
f 191//191 189//189 192//192
g 5
s 1
usemtl IfcWindow
v 5.78976 2.79802 3.8
v 5.78976 2.79802 5.2
v 5.79 2.64802 3.8
v 5.79 2.64802 5.2
v 5.79 2.64802 3.8
v 5.79 2.64802 5.2
v 5.19 2.64707 3.8
v 5.19 2.64707 5.2
v 5.19 2.64707 3.8
v 5.19 2.64707 5.2
v 5.18976 2.79707 3.8
v 5.18976 2.79707 5.2
v 5.18976 2.79707 3.8
v 5.18976 2.79707 5.2
v 5.78976 2.79802 3.8
v 5.78976 2.79802 5.2
v 5.78976 2.79802 3.8
v 5.79 2.64802 3.8
v 5.19 2.64707 3.8
v 5.18976 2.79707 3.8
v 5.78976 2.79802 5.2
v 5.79 2.64802 5.2
v 5.19 2.64707 5.2
v 5.18976 2.79707 5.2
vn 0.999999 0.001593 0
vn 0.999999 0.001593 0
vn 0.999999 0.001593 0
vn 0.999999 0.001593 0
vn 0.001593 -0.999999 0
vn 0.001593 -0.999999 0
vn 0.001593 -0.999999 0
vn 0.001593 -0.999999 0
vn -0.999999 -0.001593 0
vn -0.999999 -0.001593 0
vn -0.999999 -0.001593 0
vn -0.999999 -0.001593 0
vn -0.001593 0.999999 0
vn -0.001593 0.999999 0
vn -0.001593 0.999999 0
vn -0.001593 0.999999 0
vn 0 0 -1
vn 0 0 -1
vn 0 0 -1
vn 0 0 -1
vn 0 0 1
vn 0 0 1
vn 0 0 1
vn 0 0 1
f 195//195 193//193 194//194
f 195//195 194//194 196//196
f 199//199 197//197 198//198
f 199//199 198//198 200//200
f 203//203 201//201 202//202
f 203//203 202//202 204//204
f 207//207 205//205 206//206
f 207//207 206//206 208//208
f 209//209 210//210 211//211
f 212//212 209//209 211//211
f 215//215 214//214 213//213
f 215//215 213//213 216//216
