mtllib 1.ifc.mtl
g 5
s 1
usemtl IfcWindow
v 2.34976 6.14745 0.7
v 2.34976 6.14745 2.1
v 2.35 5.99745 0.7
v 2.35 5.99745 2.1
v 2.35 5.99745 0.7
v 2.35 5.99745 2.1
v 1.75 5.9965 0.7
v 1.75 5.9965 2.1
v 1.75 5.9965 0.7
v 1.75 5.9965 2.1
v 1.74976 6.1465 0.7
v 1.74976 6.1465 2.1
v 1.74976 6.1465 0.7
v 1.74976 6.1465 2.1
v 2.34976 6.14745 0.7
v 2.34976 6.14745 2.1
v 2.34976 6.14745 0.7
v 2.35 5.99745 0.7
v 1.75 5.9965 0.7
v 1.74976 6.1465 0.7
v 2.34976 6.14745 2.1
v 2.35 5.99745 2.1
v 1.75 5.9965 2.1
v 1.74976 6.1465 2.1
vn 0.999999 0.001593 0
vn 0.999999 0.001593 0
vn 0.999999 0.001593 0
vn 0.999999 0.001593 0
vn 0.001593 -0.999999 0
vn 0.001593 -0.999999 0
vn 0.001593 -0.999999 0
vn 0.001593 -0.999999 0
vn -0.999999 -0.001593 0
vn -0.999999 -0.001593 0
vn -0.999999 -0.001593 0
vn -0.999999 -0.001593 0
vn -0.001593 0.999999 0
vn -0.001593 0.999999 0
vn -0.001593 0.999999 0
vn -0.001593 0.999999 0
vn 0 0 -1
vn 0 0 -1
vn 0 0 -1
vn 0 0 -1
vn 0 0 1
vn 0 0 1
vn 0 0 1
vn 0 0 1
f 51//51 49//49 50//50
f 51//51 50//50 52//52
f 55//55 53//53 54//54
f 55//55 54//54 56//56
f 59//59 57//57 58//58
f 59//59 58//58 60//60
f 63//63 61//61 62//62
f 63//63 62//62 64//64
f 65//65 66//66 67//67
f 68//68 65//65 67//67
f 71//71 70//70 69//69
f 71//71 69//69 72//72
g 5
s 1
usemtl IfcWindow
v 0.00167228 3.89988 0.7
v 0.00167228 3.89988 2.1
v 0.151672 3.9 0.7
v 0.151672 3.9 2.1
v 0.151672 3.9 0.7
v 0.151672 3.9 2.1
v 0.15215 3.3 0.7
v 0.15215 3.3 2.1
v 0.15215 3.3 0.7
v 0.15215 3.3 2.1
v 0.00215006 3.29988 0.7
v 0.00215006 3.29988 2.1
v 0.00215006 3.29988 0.7
v 0.00215006 3.29988 2.1
v 0.00167228 3.89988 0.7
v 0.00167228 3.89988 2.1
v 0.00167228 3.89988 0.7
v 0.151672 3.9 0.7
v 0.15215 3.3 0.7
v 0.00215006 3.29988 0.7
v 0.00167228 3.89988 2.1
v 0.151672 3.9 2.1
v 0.15215 3.3 2.1
v 0.00215006 3.29988 2.1
vn -0.0007963 1 0
vn -0.0007963 1 0
vn -0.0007963 1 0
vn -0.0007963 1 0
vn 1 0.0007963 0
vn 1 0.0007963 0
vn 1 0.0007963 0
vn 1 0.0007963 0
vn 0.0007963 -1 0
vn 0.0007963 -1 0
vn 0.0007963 -1 0
vn 0.0007963 -1 0
vn -1 -0.0007963 0
vn -1 -0.0007963 0
vn -1 -0.0007963 0
vn -1 -0.0007963 0
vn -0 0 -1
vn -0 0 -1
vn -0 0 -1
vn -0 0 -1
vn 0 0 1
vn 0 0 1
vn 0 0 1
vn 0 0 1
f 123//123 121//121 122//122
f 123//123 122//122 124//124
f 127//127 125//125 126//126
f 127//127 126//126 128//128
f 131//131 129//129 130//130
f 131//131 130//130 132//132
f 135//135 133//133 134//134
f 135//135 134//134 136//136
f 137//137 138//138 139//139
f 140//140 137//137 139//139
f 143//143 142//142 141//141
f 143//143 141//141 144//144
g 5
s 1
usemtl IfcWindow
v 7.17773 1.10036 0.7
v 7.17773 1.10036 2.1
v 7.02773 1.1 0.7
v 7.02773 1.1 2.1
v 7.02773 1.1 0.7
v 7.02773 1.1 2.1
v 7.0263 1.7 0.7
v 7.0263 1.7 2.1
v 7.0263 1.7 0.7
v 7.0263 1.7 2.1
v 7.1763 1.70035 0.7
v 7.1763 1.70035 2.1
v 7.1763 1.70035 0.7
v 7.1763 1.70035 2.1
v 7.17773 1.10036 0.7
v 7.17773 1.10036 2.1
v 7.17773 1.10036 0.7
v 7.02773 1.1 0.7
v 7.0263 1.7 0.7
v 7.1763 1.70035 0.7
v 7.17773 1.10036 2.1
v 7.02773 1.1 2.1
v 7.0263 1.7 2.1
v 7.1763 1.70035 2.1
vn 0.00238899 -0.999997 0
vn 0.00238899 -0.999997 0
vn 0.00238899 -0.999997 0
vn 0.00238899 -0.999997 0
vn -0.999997 -0.00238899 0
vn -0.999997 -0.00238899 0
vn -0.999997 -0.00238899 0
vn -0.999997 -0.00238899 0
vn -0.00238899 0.999997 0
vn -0.00238899 0.999997 0
vn -0.00238899 0.999997 0
vn -0.00238899 0.999997 0
vn 0.999997 0.00238899 0
vn 0.999997 0.00238899 0
vn 0.999997 0.00238899 0
vn 0.999997 0.00238899 0
vn 0 0 -1
vn 0 0 -1
vn 0 0 -1
vn 0 0 -1
vn 0 0 1
vn 0 0 1
vn 0 0 1
vn 0 0 1
f 363//363 361//361 362//362
f 363//363 362//362 364//364
f 367//367 365//365 366//366
f 367//367 366//366 368//368
f 371//371 369//369 370//370
f 371//371 370//370 372//372
f 375//375 373//373 374//374
f 375//375 374//374 376//376
f 377//377 378//378 379//379
f 380//380 377//377 379//379
f 383//383 382//382 381//381
f 383//383 381//381 384//384
g 5
s 1
usemtl IfcWindow
v 5.78976 2.79802 0.7
v 5.78976 2.79802 2.1
v 5.79 2.64802 0.7
v 5.79 2.64802 2.1
v 5.79 2.64802 0.7
v 5.79 2.64802 2.1
v 5.19 2.64707 0.7
v 5.19 2.64707 2.1
v 5.19 2.64707 0.7
v 5.19 2.64707 2.1
v 5.18976 2.79707 0.7
v 5.18976 2.79707 2.1
v 5.18976 2.79707 0.7
v 5.18976 2.79707 2.1
v 5.78976 2.79802 0.7
v 5.78976 2.79802 2.1
v 5.78976 2.79802 0.7
v 5.79 2.64802 0.7
v 5.19 2.64707 0.7
v 5.18976 2.79707 0.7
v 5.78976 2.79802 2.1
v 5.79 2.64802 2.1
v 5.19 2.64707 2.1
v 5.18976 2.79707 2.1
vn 0.999999 0.001593 0
vn 0.999999 0.001593 0
vn 0.999999 0.001593 0
vn 0.999999 0.001593 0
vn 0.001593 -0.999999 0
vn 0.001593 -0.999999 0
vn 0.001593 -0.999999 0
vn 0.001593 -0.999999 0
vn -0.999999 -0.001593 0
vn -0.999999 -0.001593 0
vn -0.999999 -0.001593 0
vn -0.999999 -0.001593 0
vn -0.001593 0.999999 0
vn -0.001593 0.999999 0
vn -0.001593 0.999999 0
vn -0.001593 0.999999 0
vn 0 0 -1
vn 0 0 -1
vn 0 0 -1
vn 0 0 -1
vn 0 0 1
vn 0 0 1
vn 0 0 1
vn 0 0 1
f 435//435 433//433 434//434
f 435//435 434//434 436//436
f 439//439 437//437 438//438
f 439//439 438//438 440//440
f 443//443 441//441 442//442
f 443//443 442//442 444//444
f 447//447 445//445 446//446
f 447//447 446//446 448//448
f 449//449 450//450 451//451
f 452//452 449//449 451//451
f 455//455 454//454 453//453
f 455//455 453//453 456//456
g 5
s 1
usemtl IfcWindow
v 2.34976 6.14745 3.8
v 2.34976 6.14745 5.2
v 2.35 5.99745 3.8
v 2.35 5.99745 5.2
v 2.35 5.99745 3.8
v 2.35 5.99745 5.2
v 1.75 5.9965 3.8
v 1.75 5.9965 5.2
v 1.75 5.9965 3.8
v 1.75 5.9965 5.2
v 1.74976 6.1465 3.8
v 1.74976 6.1465 5.2
v 1.74976 6.1465 3.8
v 1.74976 6.1465 5.2
v 2.34976 6.14745 3.8
v 2.34976 6.14745 5.2
v 2.34976 6.14745 3.8
v 2.35 5.99745 3.8
v 1.75 5.9965 3.8
v 1.74976 6.1465 3.8
v 2.34976 6.14745 5.2
v 2.35 5.99745 5.2
v 1.75 5.9965 5.2
v 1.74976 6.1465 5.2
vn 0.999999 0.001593 0
vn 0.999999 0.001593 0
vn 0.999999 0.001593 0
vn 0.999999 0.001593 0
vn 0.001593 -0.999999 0
vn 0.001593 -0.999999 0
vn 0.001593 -0.999999 0
vn 0.001593 -0.999999 0
vn -0.999999 -0.001593 0
vn -0.999999 -0.001593 0
vn -0.999999 -0.001593 0
vn -0.999999 -0.001593 0
vn -0.001593 0.999999 0
vn -0.001593 0.999999 0
vn -0.001593 0.999999 0
vn -0.001593 0.999999 0
vn 0 0 -1
vn 0 0 -1
vn 0 0 -1
vn 0 0 -1
vn 0 0 1
vn 0 0 1
vn 0 0 1
vn 0 0 1
f 747//747 745//745 746//746
f 747//747 746//746 748//748
f 751//751 749//749 750//750
f 751//751 750//750 752//752
f 755//755 753//753 754//754
f 755//755 754//754 756//756
f 759//759 757//757 758//758
f 759//759 758//758 760//760
f 761//761 762//762 763//763
f 764//764 761//761 763//763
f 767//767 766//766 765//765
f 767//767 765//765 768//768
g 5
s 1
usemtl IfcWindow
v 1.64 1.05 3.8
v 1.64 1.05 5.2
v 1.64 1.2 3.8
v 1.64 1.2 5.2
v 1.64 1.2 3.8
v 1.64 1.2 5.2
v 2.24 1.2 3.8
v 2.24 1.2 5.2
v 2.24 1.2 3.8
v 2.24 1.2 5.2
v 2.24 1.05 3.8
v 2.24 1.05 5.2
v 2.24 1.05 3.8
v 2.24 1.05 5.2
v 1.64 1.05 3.8
v 1.64 1.05 5.2
v 1.64 1.05 3.8
v 1.64 1.2 3.8
v 2.24 1.2 3.8
v 2.24 1.05 3.8
v 1.64 1.05 5.2
v 1.64 1.2 5.2
v 2.24 1.2 5.2
v 2.24 1.05 5.2
vn -1 0 0
vn -1 0 0
vn -1 0 0
vn -1 0 0
vn 0 1 0
vn 0 1 0
vn 0 1 0
vn 0 1 0
vn 1 0 0
vn 1 0 0
vn 1 0 0
vn 1 0 0
vn 0 -1 0
vn 0 -1 0
vn 0 -1 0
vn 0 -1 0
vn -0 -0 -1
vn -0 -0 -1
vn -0 -0 -1
vn -0 -0 -1
vn 0 0 1
vn 0 0 1
vn 0 0 1
vn 0 0 1
f 843//843 841//841 842//842
f 843//843 842//842 844//844
f 847//847 845//845 846//846
f 847//847 846//846 848//848
f 851//851 849//849 850//850
f 851//851 850//850 852//852
f 855//855 853//853 854//854
f 855//855 854//854 856//856
f 857//857 858//858 859//859
f 860//860 857//857 859//859
f 863//863 862//862 861//861
f 863//863 861//861 864//864
g 5
s 1
usemtl IfcWindow
v 5.08 0 3.8
v 5.08 0 5.2
v 5.08 0.15 3.8
v 5.08 0.15 5.2
v 5.08 0.15 3.8
v 5.08 0.15 5.2
v 5.68 0.15 3.8
v 5.68 0.15 5.2
v 5.68 0.15 3.8
v 5.68 0.15 5.2
v 5.68 0 3.8
v 5.68 0 5.2
v 5.68 0 3.8
v 5.68 0 5.2
v 5.08 0 3.8
v 5.08 0 5.2
v 5.08 0 3.8
v 5.08 0.15 3.8
v 5.68 0.15 3.8
v 5.68 0 3.8
v 5.08 0 5.2
v 5.08 0.15 5.2
v 5.68 0.15 5.2
v 5.68 0 5.2
vn -1 0 0
vn -1 0 0
vn -1 0 0
vn -1 0 0
vn 0 1 0
vn 0 1 0
vn 0 1 0
vn 0 1 0
vn 1 0 0
vn 1 0 0
vn 1 0 0
vn 1 0 0
vn 0 -1 0
vn 0 -1 0
vn 0 -1 0
vn 0 -1 0
vn -0 -0 -1
vn -0 -0 -1
vn -0 -0 -1
vn -0 -0 -1
vn 0 0 1
vn 0 0 1
vn 0 0 1
vn 0 0 1
f 939//939 937//937 938//938
f 939//939 938//938 940//940
f 943//943 941//941 942//942
f 943//943 942//942 944//944
f 947//947 945//945 946//946
f 947//947 946//946 948//948
f 951//951 949//949 950//950
f 951//951 950//950 952//952
f 953//953 954//954 955//955
f 956//956 953//953 955//955
f 959//959 958//958 957//957
f 959//959 957//957 960//960
g 5
s 1
usemtl IfcWindow
v 7.17773 1.10036 3.8
v 7.17773 1.10036 5.2
v 7.02773 1.1 3.8
v 7.02773 1.1 5.2
v 7.02773 1.1 3.8
v 7.02773 1.1 5.2
v 7.0263 1.7 3.8
v 7.0263 1.7 5.2
v 7.0263 1.7 3.8
v 7.0263 1.7 5.2
v 7.1763 1.70035 3.8
v 7.1763 1.70035 5.2
v 7.1763 1.70035 3.8
v 7.1763 1.70035 5.2
v 7.17773 1.10036 3.8
v 7.17773 1.10036 5.2
v 7.17773 1.10036 3.8
v 7.02773 1.1 3.8
v 7.0263 1.7 3.8
v 7.1763 1.70035 3.8
v 7.17773 1.10036 5.2
v 7.02773 1.1 5.2
v 7.0263 1.7 5.2
v 7.1763 1.70035 5.2
vn 0.00238899 -0.999997 0
vn 0.00238899 -0.999997 0
vn 0.00238899 -0.999997 0
vn 0.00238899 -0.999997 0
vn -0.999997 -0.00238899 0
vn -0.999997 -0.00238899 0
vn -0.999997 -0.00238899 0
vn -0.999997 -0.00238899 0
vn -0.00238899 0.999997 0
vn -0.00238899 0.999997 0
vn -0.00238899 0.999997 0
vn -0.00238899 0.999997 0
vn 0.999997 0.00238899 0
vn 0.999997 0.00238899 0
vn 0.999997 0.00238899 0
vn 0.999997 0.00238899 0
vn 0 0 -1
vn 0 0 -1
vn 0 0 -1
vn 0 0 -1
vn 0 0 1
vn 0 0 1
vn 0 0 1
vn 0 0 1
f 1011//1011 1009//1009 1010//1010
f 1011//1011 1010//1010 1012//1012
f 1015//1015 1013//1013 1014//1014
f 1015//1015 1014//1014 1016//1016
f 1019//1019 1017//1017 1018//1018
f 1019//1019 1018//1018 1020//1020
f 1023//1023 1021//1021 1022//1022
f 1023//1023 1022//1022 1024//1024
f 1025//1025 1026//1026 1027//1027
f 1028//1028 1025//1025 1027//1027
f 1031//1031 1030//1030 1029//1029
f 1031//1031 1029//1029 1032//1032
g 5
s 1
usemtl IfcWindow
v 5.78976 2.79802 3.8
v 5.78976 2.79802 5.2
v 5.79 2.64802 3.8
v 5.79 2.64802 5.2
v 5.79 2.64802 3.8
v 5.79 2.64802 5.2
v 5.19 2.64707 3.8
v 5.19 2.64707 5.2
v 5.19 2.64707 3.8
v 5.19 2.64707 5.2
v 5.18976 2.79707 3.8
v 5.18976 2.79707 5.2
v 5.18976 2.79707 3.8
v 5.18976 2.79707 5.2
v 5.78976 2.79802 3.8
v 5.78976 2.79802 5.2
v 5.78976 2.79802 3.8
v 5.79 2.64802 3.8
v 5.19 2.64707 3.8
v 5.18976 2.79707 3.8
v 5.78976 2.79802 5.2
v 5.79 2.64802 5.2
v 5.19 2.64707 5.2
v 5.18976 2.79707 5.2
vn 0.999999 0.001593 0
vn 0.999999 0.001593 0
vn 0.999999 0.001593 0
vn 0.999999 0.001593 0
vn 0.001593 -0.999999 0
vn 0.001593 -0.999999 0
vn 0.001593 -0.999999 0
vn 0.001593 -0.999999 0
vn -0.999999 -0.001593 0
vn -0.999999 -0.001593 0
vn -0.999999 -0.001593 0
vn -0.999999 -0.001593 0
vn -0.001593 0.999999 0
vn -0.001593 0.999999 0
vn -0.001593 0.999999 0
vn -0.001593 0.999999 0
vn 0 0 -1
vn 0 0 -1
vn 0 0 -1
vn 0 0 -1
vn 0 0 1
vn 0 0 1
vn 0 0 1
vn 0 0 1
f 1083//1083 1081//1081 1082//1082
f 1083//1083 1082//1082 1084//1084
f 1087//1087 1085//1085 1086//1086
f 1087//1087 1086//1086 1088//1088
f 1091//1091 1089//1089 1090//1090
f 1091//1091 1090//1090 1092//1092
f 1095//1095 1093//1093 1094//1094
f 1095//1095 1094//1094 1096//1096
f 1097//1097 1098//1098 1099//1099
f 1100//1100 1097//1097 1099//1099
f 1103//1103 1102//1102 1101//1101
f 1103//1103 1101//1101 1104//1104
